<svg xmlns="http://www.w3.org/2000/svg" xmlns:xlink="http://www.w3.org/1999/xlink" width="200" zoomAndPan="magnify" viewBox="0 0 375 374.999991" height="200" preserveAspectRatio="xMidYMid meet" version="1.0"><defs><g/><clipPath id="ac31a17fe1"><path d="M 78.5 119.667969 L 142.40625 119.667969 L 142.40625 192.402344 L 78.5 192.402344 Z M 78.5 119.667969 " clip-rule="nonzero"/></clipPath><clipPath id="d40525655e"><path d="M 232.839844 119.667969 L 296.746094 119.667969 L 296.746094 192.402344 L 232.839844 192.402344 Z M 232.839844 119.667969 " clip-rule="nonzero"/></clipPath></defs><rect x="-37.5" width="450" fill="#ffffff" y="-37.499999" height="449.999989" fill-opacity="1"/><rect x="-37.5" width="450" fill="#ffffff" y="-37.499999" height="449.999989" fill-opacity="1"/><rect x="-37.5" width="450" fill="#ffffff" y="-37.499999" height="449.999989" fill-opacity="1"/><path fill="#000000" d="M 181.214844 174.898438 C 177.867188 169.917969 168.804688 157.808594 156.441406 152.078125 C 170.539062 161.3125 177.472656 171.84375 180.089844 176.617188 C 170.820312 180.183594 148.230469 173.992188 145.949219 142.199219 C 184.738281 151.132812 184.984375 166.878906 181.214844 174.898438 " fill-opacity="1" fill-rule="nonzero"/><path fill="#000000" d="M 186.621094 176.984375 C 189.890625 171.019531 198.558594 157.855469 216.183594 146.308594 C 200.726562 153.476562 189.398438 168.605469 185.210938 174.835938 C 180.5 164.8125 180.808594 145.128906 229.296875 133.964844 C 226.445312 173.703125 198.210938 181.441406 186.621094 176.984375 " fill-opacity="1" fill-rule="nonzero"/><g clip-path="url(#ac31a17fe1)"><path fill="#2ea15e" d="M 140.300781 184.578125 C 124.097656 175.199219 91.226562 156.171875 90.992188 156.035156 C 105.109375 147.863281 137.984375 128.835938 140.300781 127.492188 C 144.953125 124.800781 140.753906 117.558594 136.085938 120.261719 C 119.882812 129.640625 103.683594 139.019531 87.480469 148.394531 C 85.164062 149.738281 82.847656 151.078125 80.53125 152.417969 C 77.820312 153.988281 77.820312 158.082031 80.53125 159.648438 C 96.730469 169.027344 133.765625 190.464844 136.085938 191.808594 C 140.746094 194.507812 144.957031 187.273438 140.300781 184.578125 " fill-opacity="1" fill-rule="nonzero"/></g><g clip-path="url(#d40525655e)"><path fill="#2ea15e" d="M 294.714844 152.417969 C 278.515625 143.042969 241.480469 121.605469 239.160156 120.261719 C 234.496094 117.5625 230.289062 124.796875 234.945312 127.492188 C 251.148438 136.871094 284.019531 155.898438 284.253906 156.035156 C 270.136719 164.207031 237.261719 183.234375 234.945312 184.578125 C 230.292969 187.269531 234.492188 194.511719 239.160156 191.808594 C 255.363281 182.429688 292.398438 160.992188 294.714844 159.648438 C 297.425781 158.082031 297.425781 153.988281 294.714844 152.417969 " fill-opacity="1" fill-rule="nonzero"/></g><g fill="#2ea15e" fill-opacity="1"><g transform="translate(81.976248, 235.589092)"><g><path d="M 10.023438 0.28125 C 13.1875 0.28125 14.921875 -0.671875 16.097656 -1.902344 C 16.601562 -2.464844 16.742188 -3.164062 16.742188 -4.339844 L 16.742188 -8.148438 C 16.742188 -9.6875 15.902344 -10.527344 14.363281 -10.527344 L 11.816406 -10.527344 C 10.273438 -10.527344 9.433594 -9.882812 9.433594 -8.734375 C 9.433594 -7.585938 10.273438 -6.945312 11.816406 -6.945312 L 12.261719 -6.945312 L 12.261719 -4.789062 C 12.261719 -4.058594 11.171875 -3.640625 9.882812 -3.640625 C 8.0625 -3.640625 6.523438 -4.789062 6.523438 -9.714844 C 6.523438 -14.277344 7.308594 -15.902344 9.660156 -15.902344 C 10.582031 -15.902344 11.199219 -15.652344 11.449219 -15.007812 C 12.011719 -13.578125 12.207031 -12.792969 13.664062 -12.792969 L 14 -12.792969 C 15.539062 -12.792969 16.601562 -13.664062 16.324219 -15.203125 C 15.734375 -18.140625 13.410156 -19.683594 9.632812 -19.683594 C 4.117188 -19.683594 1.398438 -16.351562 1.398438 -9.714844 C 1.398438 -3.050781 4.058594 0.28125 10.023438 0.28125 Z M 10.023438 0.28125 "/></g></g></g><g fill="#2ea15e" fill-opacity="1"><g transform="translate(103.757772, 235.589092)"><g><path d="M 4.480469 0 L 4.984375 0 C 6.523438 0 7.363281 -0.839844 7.363281 -2.378906 C 7.335938 -3.917969 7.335938 -5.460938 7.335938 -7 L 8.371094 -7 C 10.640625 -7 11.394531 -4.925781 11.785156 -2.269531 C 12.011719 -0.757812 12.824219 0 14.308594 0 L 15.203125 0 C 16.855469 0 17.722656 -1.007812 17.359375 -2.6875 C 16.574219 -6.160156 15.425781 -7.894531 13.578125 -8.457031 L 13.578125 -8.566406 C 15.957031 -9.15625 17.414062 -11.058594 17.414062 -13.578125 C 17.414062 -17.667969 14.980469 -19.402344 9.296875 -19.402344 L 4.480469 -19.402344 C 2.941406 -19.402344 2.101562 -18.5625 2.101562 -17.023438 C 2.128906 -14.585938 2.15625 -12.152344 2.15625 -9.714844 C 2.15625 -7.25 2.128906 -4.816406 2.101562 -2.378906 C 2.101562 -0.839844 2.941406 0 4.480469 0 Z M 7.335938 -10.078125 C 7.335938 -12.710938 7.335938 -14.140625 7.363281 -15.539062 L 8.707031 -15.539062 C 11.03125 -15.539062 12.011719 -14.8125 12.011719 -13.074219 C 12.011719 -10.945312 10.917969 -10.078125 8.289062 -10.078125 Z M 7.335938 -10.078125 "/></g></g></g><g fill="#2ea15e" fill-opacity="1"><g transform="translate(126.491158, 235.589092)"><g><path d="M 7.335938 -3.722656 L 7.335938 -7.726562 C 8.511719 -7.699219 9.6875 -7.699219 10.808594 -7.671875 C 12.347656 -7.671875 13.1875 -8.34375 13.1875 -9.574219 C 13.1875 -10.777344 12.347656 -11.449219 10.808594 -11.449219 C 9.6875 -11.421875 8.511719 -11.421875 7.335938 -11.394531 L 7.335938 -15.679688 C 8.875 -15.652344 10.441406 -15.652344 11.925781 -15.621094 C 13.46875 -15.621094 14.308594 -16.292969 14.308594 -17.527344 C 14.308594 -18.730469 13.46875 -19.402344 11.925781 -19.402344 L 4.480469 -19.402344 C 2.941406 -19.402344 2.101562 -18.5625 2.128906 -17.023438 C 2.128906 -14.585938 2.15625 -12.152344 2.15625 -9.714844 C 2.15625 -7.28125 2.128906 -4.84375 2.128906 -2.378906 C 2.101562 -0.839844 2.941406 0 4.480469 0 L 12.207031 0 C 13.746094 0 14.585938 -0.671875 14.585938 -1.902344 C 14.585938 -3.109375 13.746094 -3.78125 12.207031 -3.78125 C 10.640625 -3.75 8.988281 -3.75 7.335938 -3.722656 Z M 7.335938 -3.722656 "/></g></g></g><g fill="#2ea15e" fill-opacity="1"><g transform="translate(145.948991, 235.589092)"><g><path d="M 7.335938 -3.722656 L 7.335938 -7.726562 C 8.511719 -7.699219 9.6875 -7.699219 10.808594 -7.671875 C 12.347656 -7.671875 13.1875 -8.34375 13.1875 -9.574219 C 13.1875 -10.777344 12.347656 -11.449219 10.808594 -11.449219 C 9.6875 -11.421875 8.511719 -11.421875 7.335938 -11.394531 L 7.335938 -15.679688 C 8.875 -15.652344 10.441406 -15.652344 11.925781 -15.621094 C 13.46875 -15.621094 14.308594 -16.292969 14.308594 -17.527344 C 14.308594 -18.730469 13.46875 -19.402344 11.925781 -19.402344 L 4.480469 -19.402344 C 2.941406 -19.402344 2.101562 -18.5625 2.128906 -17.023438 C 2.128906 -14.585938 2.15625 -12.152344 2.15625 -9.714844 C 2.15625 -7.28125 2.128906 -4.84375 2.128906 -2.378906 C 2.101562 -0.839844 2.941406 0 4.480469 0 L 12.207031 0 C 13.746094 0 14.585938 -0.671875 14.585938 -1.902344 C 14.585938 -3.109375 13.746094 -3.78125 12.207031 -3.78125 C 10.640625 -3.75 8.988281 -3.75 7.335938 -3.722656 Z M 7.335938 -3.722656 "/></g></g></g><g fill="#2ea15e" fill-opacity="1"><g transform="translate(165.40683, 235.589092)"><g><path d="M 14.839844 -19.402344 C 13.355469 -19.402344 12.597656 -18.535156 12.710938 -16.9375 C 12.90625 -14.308594 13.046875 -11.589844 13.128906 -8.539062 L 13.074219 -8.539062 L 8.707031 -17.636719 C 8.121094 -18.871094 7.25 -19.402344 5.90625 -19.402344 L 4.480469 -19.402344 C 2.941406 -19.402344 2.101562 -18.5625 2.128906 -17.023438 C 2.15625 -12.121094 2.15625 -7.28125 2.128906 -2.378906 C 2.101562 -0.839844 2.910156 0 4.367188 0 C 5.824219 0 6.578125 -0.867188 6.496094 -2.464844 C 6.269531 -5.824219 6.132812 -9.015625 6.046875 -12.992188 L 6.101562 -12.992188 L 11.507812 -1.765625 C 12.09375 -0.53125 12.960938 0 14.308594 0 L 14.726562 0 C 16.265625 0 17.105469 -0.839844 17.078125 -2.378906 C 17.050781 -7.28125 17.050781 -12.121094 17.078125 -17.023438 C 17.105469 -18.5625 16.324219 -19.402344 14.839844 -19.402344 Z M 14.839844 -19.402344 "/></g></g></g><g fill="#000000" fill-opacity="1"><g transform="translate(188.241866, 235.589092)"><g><path d="M 17.359375 -9.714844 C 17.359375 -12.152344 17.359375 -14.585938 17.359375 -17.023438 C 17.386719 -18.5625 16.546875 -19.402344 15.007812 -19.402344 L 14.476562 -19.402344 C 12.933594 -19.402344 12.09375 -18.5625 12.121094 -17.023438 C 12.152344 -15.175781 12.152344 -13.328125 12.152344 -11.480469 L 7.335938 -11.480469 C 7.335938 -13.328125 7.335938 -15.175781 7.335938 -17.023438 C 7.363281 -18.5625 6.523438 -19.402344 4.984375 -19.402344 L 4.480469 -19.402344 C 2.941406 -19.402344 2.101562 -18.5625 2.128906 -17.023438 C 2.128906 -14.585938 2.15625 -12.152344 2.15625 -9.714844 C 2.15625 -7.28125 2.128906 -4.84375 2.128906 -2.378906 C 2.101562 -0.839844 2.941406 0 4.480469 0 L 4.984375 0 C 6.523438 0 7.363281 -0.839844 7.335938 -2.378906 C 7.335938 -4.144531 7.335938 -5.878906 7.335938 -7.617188 L 12.152344 -7.617188 C 12.152344 -5.878906 12.152344 -4.144531 12.121094 -2.378906 C 12.09375 -0.839844 12.933594 0 14.476562 0 L 15.007812 0 C 16.546875 0 17.386719 -0.839844 17.359375 -2.378906 C 17.359375 -4.84375 17.332031 -7.28125 17.359375 -9.714844 Z M 17.359375 -9.714844 "/></g></g></g><g fill="#000000" fill-opacity="1"><g transform="translate(211.367201, 235.589092)"><g><path d="M 9.632812 0.28125 C 15.117188 0.28125 17.835938 -3.050781 17.835938 -9.714844 C 17.835938 -16.351562 15.117188 -19.683594 9.632812 -19.683594 C 4.144531 -19.683594 1.398438 -16.351562 1.398438 -9.714844 C 1.398438 -3.050781 4.144531 0.28125 9.632812 0.28125 Z M 9.632812 -3.5 C 7.417969 -3.5 6.746094 -4.957031 6.746094 -9.714844 C 6.746094 -14.445312 7.417969 -15.902344 9.632812 -15.902344 C 11.84375 -15.902344 12.488281 -14.445312 12.488281 -9.714844 C 12.488281 -4.957031 11.84375 -3.5 9.632812 -3.5 Z M 9.632812 -3.5 "/></g></g></g><g fill="#000000" fill-opacity="1"><g transform="translate(234.268575, 235.589092)"><g><path d="M 9.464844 0.28125 C 14.308594 0.28125 16.769531 -2.015625 16.769531 -6.636719 C 16.769531 -8.734375 16.742188 -10.835938 16.742188 -12.933594 C 16.742188 -14.308594 16.742188 -15.652344 16.742188 -17.023438 C 16.769531 -18.5625 15.929688 -19.402344 14.390625 -19.402344 L 14.363281 -19.402344 C 12.824219 -19.402344 11.953125 -18.5625 11.984375 -16.996094 C 12.011719 -15.652344 12.011719 -14.277344 12.011719 -12.933594 C 12.011719 -10.890625 11.984375 -8.847656 11.953125 -6.804688 C 11.953125 -4.367188 11.3125 -3.5 9.464844 -3.5 C 7.839844 -3.5 7.25 -4.367188 7.222656 -6.804688 C 7.195312 -8.847656 7.195312 -10.890625 7.195312 -12.933594 C 7.195312 -14.308594 7.195312 -15.652344 7.195312 -17.023438 C 7.222656 -18.5625 6.382812 -19.402344 4.84375 -19.402344 L 4.339844 -19.402344 C 2.800781 -19.402344 1.988281 -18.5625 1.988281 -17.023438 C 1.988281 -16.324219 1.988281 -15.621094 1.988281 -14.921875 C 1.988281 -12.179688 1.960938 -9.40625 1.960938 -6.636719 C 1.960938 -2.015625 4.480469 0.28125 9.464844 0.28125 Z M 9.464844 0.28125 "/></g></g></g><g fill="#000000" fill-opacity="1"><g transform="translate(256.638014, 235.589092)"><g><path d="M 8.203125 0.28125 C 13.242188 0.28125 15.847656 -1.734375 15.847656 -5.597656 C 15.847656 -12.320312 6.496094 -9.40625 6.496094 -13.941406 C 6.496094 -15.285156 7.027344 -16.183594 8.652344 -16.183594 C 9.996094 -16.183594 10.777344 -15.789062 11.03125 -14.613281 C 11.367188 -13.046875 11.816406 -12.207031 13.242188 -12.207031 C 14.671875 -12.207031 15.652344 -12.992188 15.539062 -14.53125 C 15.285156 -17.835938 13.101562 -19.683594 8.734375 -19.683594 C 4.226562 -19.683594 1.652344 -18.03125 1.652344 -13.832031 C 1.652344 -6.972656 10.582031 -9.15625 10.582031 -5.261719 C 10.582031 -4.117188 9.882812 -3.554688 8.371094 -3.554688 C 7.476562 -3.554688 6.832031 -3.722656 6.410156 -4.117188 C 5.460938 -5.152344 5.207031 -5.964844 3.863281 -5.964844 L 3.613281 -5.964844 C 2.183594 -5.964844 1.121094 -5.066406 1.539062 -3.527344 C 2.238281 -1.035156 4.480469 0.28125 8.203125 0.28125 Z M 8.203125 0.28125 "/></g></g></g><g fill="#000000" fill-opacity="1"><g transform="translate(277.215703, 235.589092)"><g><path d="M 7.335938 -3.722656 L 7.335938 -7.726562 C 8.511719 -7.699219 9.6875 -7.699219 10.808594 -7.671875 C 12.347656 -7.671875 13.1875 -8.34375 13.1875 -9.574219 C 13.1875 -10.777344 12.347656 -11.449219 10.808594 -11.449219 C 9.6875 -11.421875 8.511719 -11.421875 7.335938 -11.394531 L 7.335938 -15.679688 C 8.875 -15.652344 10.441406 -15.652344 11.925781 -15.621094 C 13.46875 -15.621094 14.308594 -16.292969 14.308594 -17.527344 C 14.308594 -18.730469 13.46875 -19.402344 11.925781 -19.402344 L 4.480469 -19.402344 C 2.941406 -19.402344 2.101562 -18.5625 2.128906 -17.023438 C 2.128906 -14.585938 2.15625 -12.152344 2.15625 -9.714844 C 2.15625 -7.28125 2.128906 -4.84375 2.128906 -2.378906 C 2.101562 -0.839844 2.941406 0 4.480469 0 L 12.207031 0 C 13.746094 0 14.585938 -0.671875 14.585938 -1.902344 C 14.585938 -3.109375 13.746094 -3.78125 12.207031 -3.78125 C 10.640625 -3.75 8.988281 -3.75 7.335938 -3.722656 Z M 7.335938 -3.722656 "/></g></g></g></svg>